<svg xmlns="http://www.w3.org/2000/svg" width="25.222" height="25.222" viewBox="0 0 25.222 25.222">
  <g id="g1347" transform="translate(-1.75 -292.4)">
    <path id="circle1332" d="M14.361,292.65a12.361,12.361,0,1,0,12.361,12.361A12.38,12.38,0,0,0,14.361,292.65Zm0,2.472a9.889,9.889,0,1,1-9.889,9.889A9.87,9.87,0,0,1,14.361,295.123Z" transform="translate(0)" fill="#7c83b5" stroke="#fff" stroke-width="0.5"/>
    <path id="path1340" d="M12.236,299.65A1.236,1.236,0,0,0,11,300.886v8.653a1.236,1.236,0,1,0,2.472,0v-8.653A1.236,1.236,0,0,0,12.236,299.65Z" transform="translate(2.125 1.653)" fill="#7c83b5" stroke="#fff" stroke-width="0.5"/>
    <path id="path1342" d="M13.472,297.886a1.236,1.236,0,1,1-1.236-1.236A1.236,1.236,0,0,1,13.472,297.886Z" transform="translate(2.125 0.944)" fill="#7c83b5" stroke="#fff" stroke-width="0.5"/>
  </g>
</svg>
