<svg xmlns="http://www.w3.org/2000/svg" width="23.792" height="19.034" viewBox="0 0 23.792 19.034">
  <g id="Layer_16" data-name="Layer 16" transform="translate(-1 -4)">
    <path id="Path_19192" data-name="Path 19192" d="M24,23.034H1.793A.793.793,0,0,1,1,22.24V4.793A.793.793,0,0,1,1.793,4H24a.793.793,0,0,1,.793.793V22.24A.793.793,0,0,1,24,23.034ZM2.586,21.447h20.62V5.586H2.586Z" transform="translate(0 0)" fill="#7c83b5"/>
    <path id="Path_19193" data-name="Path 19193" d="M12.9,14.6a2.379,2.379,0,0,1-1.546-.579L1.278,5.4A.793.793,0,1,1,2.309,4.19L12.38,12.827a.793.793,0,0,0,1.031,0L23.483,4.19A.793.793,0,1,1,24.514,5.4L14.482,14.024A2.379,2.379,0,0,1,12.9,14.6Z" fill="#7c83b5"/>
    <rect id="Rectangle_14586" data-name="Rectangle 14586" width="8.581" height="1.586" transform="matrix(0.832, -0.555, 0.555, 0.832, 1.35, 19.2)" fill="#7c83b5"/>
    <rect id="Rectangle_14587" data-name="Rectangle 14587" width="1.586" height="8.581" transform="matrix(0.555, -0.832, 0.832, 0.555, 16.419, 15.763)" fill="#7c83b5"/>
  </g>
</svg>
