<svg xmlns="http://www.w3.org/2000/svg" width="27.322" height="36.705" viewBox="0 0 27.322 36.705">
  <g id="doctor" transform="translate(-12.339 -5.553)">
    <path id="Path_10555" data-name="Path 10555" d="M35.883,21.9a4.925,4.925,0,0,0-2.546-.223,2.608,2.608,0,0,1-.8.027h-.015a1.98,1.98,0,0,1-1.3-.739v0l0,0a3.7,3.7,0,0,1-.6-1.067.527.527,0,0,1,.21-.575A4.034,4.034,0,0,0,31.879,18a6.344,6.344,0,0,0,.712-2.965V11.011a4.8,4.8,0,0,0-1.484-3.7A7.464,7.464,0,0,0,26,5.775a7.463,7.463,0,0,0-5.107,1.538,4.8,4.8,0,0,0-1.484,3.7v4.028a6.348,6.348,0,0,0,.714,2.968,4.019,4.019,0,0,0,1.047,1.311.528.528,0,0,1,.214.577c-.533,1.41-1.449,2.014-2.717,1.788a4.913,4.913,0,0,0-2.55.222,5.563,5.563,0,0,0-3.578,5.271v9.005c0,1.339.771,3.213,4.448,4.54A27.58,27.58,0,0,0,26,42.059c6.7,0,13.461-1.817,13.461-5.877V27.175A5.563,5.563,0,0,0,35.883,21.9ZM33.6,27.737a1.157,1.157,0,1,1-1.157,1.157A1.158,1.158,0,0,1,33.6,27.737ZM21.344,17.355a4.954,4.954,0,0,1-.552-2.317V11.01a3.431,3.431,0,0,1,1.034-2.675c1.483-1.37,4.095-1.178,4.118-1.177a.69.69,0,0,0,.113,0c.027,0,2.619-.2,4.112,1.173a3.431,3.431,0,0,1,1.038,2.68v4.028a4.944,4.944,0,0,1-.551,2.314,2.681,2.681,0,0,1-.678.874,1.9,1.9,0,0,0-.657,2.157,5.479,5.479,0,0,0,.436.894L25.98,24.416l-3.873-2.94a5.285,5.285,0,0,0,.57-1.094,1.9,1.9,0,0,0-.662-2.16A2.671,2.671,0,0,1,21.344,17.355ZM38.078,36.181c0,2.919-6.222,4.494-12.078,4.494S13.922,39.1,13.922,36.181V27.175a4.177,4.177,0,0,1,2.665-3.97,3.553,3.553,0,0,1,1.216-.216,3.594,3.594,0,0,1,.624.055c.028,0,.054,0,.082.008a6.088,6.088,0,0,0-.595,2.633v.03a2.887,2.887,0,0,0-2.2,2.8V30.8a.692.692,0,0,0,1.383,0V28.51a1.5,1.5,0,0,1,3.01,0V30.8a.692.692,0,1,0,1.383,0V28.51a2.887,2.887,0,0,0-2.2-2.794v-.03a4.7,4.7,0,0,1,.875-2.731,3.278,3.278,0,0,0,.973-.472l4.436,3.367a.69.69,0,0,0,.86-.019l4.208-3.5a3.27,3.27,0,0,0,1.435.691,4.759,4.759,0,0,1,.824,2.66v.776a2.54,2.54,0,1,0,1.383,0v-.775a6.123,6.123,0,0,0-.6-2.653,3.54,3.54,0,0,1,1.726.173,4.176,4.176,0,0,1,2.665,3.97v9.007Z" fill="#ea765f" stroke="#ea765f" stroke-width="0.4"/>
    <path id="Path_10556" data-name="Path 10556" d="M34.206,42.471H32.084V40.349a.692.692,0,0,0-.692-.692H27.949a.692.692,0,0,0-.692.692v2.122H25.136a.692.692,0,0,0-.692.692v3.443a.692.692,0,0,0,.692.692h2.122v2.115a.691.691,0,0,0,.692.692h3.443a.691.691,0,0,0,.692-.692V47.3h2.122a.691.691,0,0,0,.692-.692V43.162A.692.692,0,0,0,34.206,42.471Zm-.692,3.443H31.392a.692.692,0,0,0-.692.692V48.72H28.641V46.605a.692.692,0,0,0-.692-.692H25.827V43.854h2.122a.692.692,0,0,0,.692-.692V41.04H30.7v2.122a.692.692,0,0,0,.692.692h2.122Z" transform="translate(-3.67 -10.45)" fill="#ea765f" stroke="#ea765f" stroke-width="0.4"/>
  </g>
</svg>
