<svg xmlns="http://www.w3.org/2000/svg" width="27.447" height="36.561" viewBox="0 0 27.447 36.561">
  <g id="heart" transform="translate(-4.001 -0.028)">
    <path id="Path_10552" data-name="Path 10552" d="M8.446,28.692a8.858,8.858,0,0,0,3.062,3.676,22.108,22.108,0,0,0,4.119,2.2,17.425,17.425,0,0,0,5.679,1.772q.338.027.671.027a6.645,6.645,0,0,0,5.348-2.421,8.554,8.554,0,0,0,1.5-5.22A19.185,19.185,0,0,0,24.84,16.8a22.654,22.654,0,0,1,4.87,2.224A1.144,1.144,0,0,0,30.9,17.074a25.176,25.176,0,0,0-9.432-3.394,1.144,1.144,0,1,0-.884,2.024A16.575,16.575,0,0,1,26.54,28.692a6.409,6.409,0,0,1-1.025,3.863,4.651,4.651,0,0,1-4.025,1.509,15.9,15.9,0,0,1-4.981-1.606,19.767,19.767,0,0,1-3.651-1.939,6.466,6.466,0,0,1-2.39-2.941,1.116,1.116,0,0,0-.11-.2c.142-.909.217-1.808.285-2.679a19.534,19.534,0,0,1,.595-4.044.572.572,0,0,0-1.1-.322A20.335,20.335,0,0,0,9.5,24.61c-.047.6-.1,1.211-.175,1.824A10.811,10.811,0,0,1,6.5,20.885a9.2,9.2,0,0,1,1.028-6.63,9.1,9.1,0,0,1,1.356-1.8A3.909,3.909,0,0,0,10.15,8.742,21.789,21.789,0,0,0,8.189,2.205,1.144,1.144,0,1,0,6.127,3.2a19.471,19.471,0,0,1,1.756,5.85,1.7,1.7,0,0,1-.62,1.8A11.557,11.557,0,0,0,4.27,21.368a12.262,12.262,0,0,0,4.176,7.324Z" transform="translate(0 0.219)" fill="#8b81e0"/>
    <path id="Path_10553" data-name="Path 10553" d="M12.211,14.3a1.142,1.142,0,0,0,1.226-1.053,7.932,7.932,0,0,1,3.408-5.941,7.377,7.377,0,0,0,4.055.105A5.813,5.813,0,0,0,24.5,4.77a1.144,1.144,0,0,0-2-1.1A3.546,3.546,0,0,1,20.31,5.2a5.024,5.024,0,0,1-2.574-.023A7.246,7.246,0,0,0,16.76.531,1.144,1.144,0,0,0,14.826,1.75a5.017,5.017,0,0,1,.536,3.79,10.293,10.293,0,0,0-4.206,7.534A1.144,1.144,0,0,0,12.211,14.3Z" transform="translate(1.027)" fill="#8b81e0"/>
  </g>
</svg>
