<svg id="hospital-bed" xmlns="http://www.w3.org/2000/svg" width="32.578" height="32.578" viewBox="0 0 32.578 32.578">
  <path id="Path_10547" data-name="Path 10547" d="M2,6.664V32.842a1.164,1.164,0,1,0,2.327,0V6.664A1.164,1.164,0,0,0,2,6.664Z" transform="translate(-2 -1.428)" fill="#43a3d1" fill-rule="evenodd"/>
  <path id="Path_10548" data-name="Path 10548" d="M3.164,26.327H32.251v3.491a1.164,1.164,0,1,0,2.327,0V25.164A1.164,1.164,0,0,0,33.415,24H3.164a1.164,1.164,0,0,0,0,2.327Z" transform="translate(-2 1.597)" fill="#43a3d1" fill-rule="evenodd"/>
  <path id="Path_10549" data-name="Path 10549" d="M15.327,26.145V20.327H29.289a1.164,1.164,0,0,1,1.164,1.164v4.654a1.164,1.164,0,1,0,2.327,0V21.491A3.491,3.491,0,0,0,29.289,18H14.164A1.164,1.164,0,0,0,13,19.164v6.981a1.164,1.164,0,1,0,2.327,0Z" transform="translate(-0.201 0.616)" fill="#43a3d1" fill-rule="evenodd"/>
  <path id="Path_10550" data-name="Path 10550" d="M8.327,22.943V21.6a2.15,2.15,0,0,1,2.15-2.15h0a2.067,2.067,0,0,1,1.461.605L14.485,22.6a1.163,1.163,0,1,0,1.645-1.645l-2.545-2.544a4.392,4.392,0,0,0-3.107-1.287h0A4.477,4.477,0,0,0,6,21.6v1.34a1.164,1.164,0,0,0,2.327,0ZM9.491,7.818a3.492,3.492,0,0,0,0,6.981,3.492,3.492,0,0,0,0-6.981Zm0,2.327a1.164,1.164,0,1,1-1.164,1.164A1.164,1.164,0,0,1,9.491,10.145Zm4.654-6.981V7.818a1.164,1.164,0,1,0,2.327,0V3.164a1.164,1.164,0,0,0-2.327,0Z" transform="translate(-1.346 -2)" fill="#43a3d1" fill-rule="evenodd"/>
  <path id="Path_10551" data-name="Path 10551" d="M16.818,4H12.164a1.164,1.164,0,1,0,0,2.327h4.654a1.164,1.164,0,1,0,0-2.327Z" transform="translate(-0.528 -1.673)" fill="#43a3d1" fill-rule="evenodd"/>
</svg>
