<svg xmlns="http://www.w3.org/2000/svg" width="44" height="44" viewBox="0 0 44 44">
  <g id="_9022498_globe_hemisphere_west_duotone_icon" data-name="9022498_globe_hemisphere_west_duotone_icon" transform="translate(0.183 0.183)">
    <rect id="Rectangle_14585" data-name="Rectangle 14585" width="44" height="44" transform="translate(-0.183 -0.183)" fill="none"/>
    <path id="Path_19171" data-name="Path 19171" d="M114.425,148.243a16.377,16.377,0,0,0,14.285-9.115h0l-9.234-5.68a1.225,1.225,0,0,0-.527-.187l-3.894-.527a1.327,1.327,0,0,0-1.412.8l-2.33,5.221a1.361,1.361,0,0,0,.238,1.48l3.2,3.452a1.4,1.4,0,0,1,.34,1.19Z" transform="translate(-92.059 -109.926)" fill="#ffae5c" opacity="0.2"/>
    <path id="Path_19172" data-name="Path 19172" d="M57.02,36.013,55.49,39.619a1.36,1.36,0,0,0-.017,1l1.956,5.2a1.343,1.343,0,0,0,.986.867l.918.187,1.412-3.35A1.378,1.378,0,0,1,62,42.7h3.639a1.463,1.463,0,0,0,.646-.17L68.38,41.37a1.225,1.225,0,0,0,.255-.187l4.575-4.132a1.378,1.378,0,0,0,.272-1.667L71.9,32.527h0A16.751,16.751,0,0,0,67.734,32,16.224,16.224,0,0,0,57.02,36.013Z" transform="translate(-45.743 -26.334)" fill="#ffae5c" opacity="0.2"/>
    <circle id="Ellipse_1727" data-name="Ellipse 1727" cx="16.5" cy="16.5" r="16.5" transform="translate(5.817 5.817)" fill="none" stroke="#fdae5e" stroke-linecap="round" stroke-linejoin="round" stroke-width="2"/>
    <path id="Path_19173" data-name="Path 19173" d="M128.71,139.128l-9.234-5.68a1.225,1.225,0,0,0-.527-.187l-3.894-.527a1.327,1.327,0,0,0-1.412.8l-2.33,5.221a1.361,1.361,0,0,0,.238,1.48l3.2,3.452a1.4,1.4,0,0,1,.34,1.19l-.663,3.367" transform="translate(-92.059 -109.926)" fill="none" stroke="#fdae5e" stroke-linecap="round" stroke-linejoin="round" stroke-width="2"/>
    <path id="Path_19174" data-name="Path 19174" d="M57.02,55.6,55.49,59.205a1.361,1.361,0,0,0-.017,1l1.956,5.2a1.344,1.344,0,0,0,.986.867l3.639.782a1.326,1.326,0,0,1,.935.731l.646,1.343a1.394,1.394,0,0,0,1.224.765h2.3" transform="translate(-45.743 -45.921)" fill="none" stroke="#fdae5e" stroke-linecap="round" stroke-linejoin="round" stroke-width="2"/>
    <path id="Path_19175" data-name="Path 19175" d="M91.168,35.1l1.582,2.857a1.378,1.378,0,0,1-.272,1.667L87.9,43.756a1.224,1.224,0,0,1-.255.187L85.556,45.1a1.462,1.462,0,0,1-.646.17H81.27a1.377,1.377,0,0,0-1.258.833L78.6,49.453" transform="translate(-65.01 -28.907)" fill="none" stroke="#fdae5e" stroke-linecap="round" stroke-linejoin="round" stroke-width="2"/>
  </g>
</svg>
