<svg xmlns="http://www.w3.org/2000/svg" width="26.528" height="26.528" viewBox="0 0 26.528 26.528">
  <g id="Layer_20" data-name="Layer 20" transform="translate(-1 -1)">
    <path id="Path_19182" data-name="Path 19182" d="M15.306,20.611a5.306,5.306,0,1,1,5.306-5.306A5.306,5.306,0,0,1,15.306,20.611Zm0-8.843a3.537,3.537,0,1,0,3.537,3.537A3.537,3.537,0,0,0,15.306,11.769Z" transform="translate(-1.042 -1.042)" fill="#7c83b5"/>
    <path id="Path_19183" data-name="Path 19183" d="M19.38,29.957H10.537A3.537,3.537,0,0,1,7,26.42V24.165a.884.884,0,0,1,.557-.814l3.219-1.291a.884.884,0,1,1,.646,1.645L8.769,24.766V26.42a1.769,1.769,0,0,0,1.769,1.769H19.38a1.769,1.769,0,0,0,1.769-1.769V24.766L18.5,23.7a.885.885,0,1,1,.654-1.645l3.219,1.291a.884.884,0,0,1,.557.814V26.42a3.537,3.537,0,0,1-3.546,3.537Z" transform="translate(-0.694 -2.429)" fill="#7c83b5"/>
    <path id="Path_19184" data-name="Path 19184" d="M8.421,9.843a4.421,4.421,0,1,1,4.421-4.421A4.421,4.421,0,0,1,8.421,9.843Zm0-7.074a2.653,2.653,0,1,0,2.653,2.653A2.653,2.653,0,0,0,8.421,2.769Z" transform="translate(-0.347)" fill="#7c83b5"/>
    <path id="Path_19185" data-name="Path 19185" d="M7.19,18.464H4.537A3.537,3.537,0,0,1,1,14.927V13.38a.884.884,0,0,1,.557-.822l2.821-1.105a.875.875,0,1,1,.646,1.627l-2.255.9v.946A1.769,1.769,0,0,0,4.537,16.7H7.19a.884.884,0,1,1,0,1.769Z" transform="translate(0 -1.202)" fill="#7c83b5"/>
    <path id="Path_19186" data-name="Path 19186" d="M22.421,9.843a4.421,4.421,0,1,1,4.421-4.421A4.421,4.421,0,0,1,22.421,9.843Zm0-7.074a2.653,2.653,0,1,0,2.653,2.653A2.653,2.653,0,0,0,22.421,2.769Z" transform="translate(-1.967)" fill="#7c83b5"/>
    <path id="Path_19187" data-name="Path 19187" d="M26.537,18.463H23.884a.884.884,0,0,1,0-1.769h2.653a1.769,1.769,0,0,0,1.769-1.769V13.98L26.051,13.1a.888.888,0,0,1,.646-1.654l2.821,1.105a.884.884,0,0,1,.557.822v1.547a3.537,3.537,0,0,1-3.537,3.546Z" transform="translate(-2.546 -1.202)" fill="#7c83b5"/>
  </g>
</svg>
