<svg xmlns="http://www.w3.org/2000/svg" width="27.883" height="22.406" viewBox="0 0 27.883 22.406">
  <path id="_8675130_ic_fluent_news_regular_icon" data-name="8675130_ic_fluent_news_regular_icon" d="M24.933,25.906H6.45a4.45,4.45,0,0,1-4.443-4.2L2,21.457V7.081A3.081,3.081,0,0,1,4.87,4.007L5.081,4H22.195a3.081,3.081,0,0,1,3.073,2.87l.007.211V8.107H26.3a3.081,3.081,0,0,1,3.073,2.87l.007.211V21.457a4.45,4.45,0,0,1-4.2,4.443l-.252.007h0ZM6.45,23.853H24.933a2.4,2.4,0,0,0,2.388-2.2l.008-.2V11.188a1.027,1.027,0,0,0-.887-1.017l-.139-.009H25.275V20.772a1.027,1.027,0,0,1-.887,1.018l-.139.009a1.027,1.027,0,0,1-1.018-.887l-.009-.139V7.081a1.027,1.027,0,0,0-.887-1.017l-.139-.009H5.081a1.027,1.027,0,0,0-1.017.888l-.009.139V21.457a2.4,2.4,0,0,0,2.2,2.388l.2.008h0Zm9.579-5.477h4.116a1.027,1.027,0,0,1,.139,2.044l-.139.009H16.028a1.027,1.027,0,0,1-.139-2.044l.139-.009h0ZM11.917,13.59a1.027,1.027,0,0,1,1.027,1.027V19.4a1.027,1.027,0,0,1-1.027,1.027H7.131A1.027,1.027,0,0,1,6.1,19.4V14.617A1.027,1.027,0,0,1,7.131,13.59ZM10.89,15.644H8.158v2.732H10.89Zm5.138-2.054h4.116a1.027,1.027,0,0,1,.139,2.044l-.139.009H16.028a1.027,1.027,0,0,1-.139-2.044l.139-.009h0ZM7.131,8.8H20.144a1.027,1.027,0,0,1,.139,2.044l-.139.009H7.131A1.027,1.027,0,0,1,6.992,8.8L7.131,8.8h0Z" transform="translate(-1.75 -3.75)" fill="#7c83b5" stroke="#fff" stroke-width="0.5"/>
</svg>
